<mxfile host="Electron" agent="Mozilla/5.0 (X11; Linux x86_64) AppleWebKit/537.36 (KHTML, like Gecko) draw.io/24.7.8 Chrome/128.0.6613.36 Electron/32.0.1 Safari/537.36" version="24.7.8">
  <diagram id="C5RBs43oDa-KdzZeNtuy" name="Page-1">
    <mxGraphModel dx="2261" dy="778" grid="1" gridSize="10" guides="1" tooltips="1" connect="1" arrows="1" fold="1" page="1" pageScale="1" pageWidth="827" pageHeight="1169" math="0" shadow="0">
      <root>
        <mxCell id="WIyWlLk6GJQsqaUBKTNV-0" />
        <mxCell id="WIyWlLk6GJQsqaUBKTNV-1" parent="WIyWlLk6GJQsqaUBKTNV-0" />
        <mxCell id="rxUTiSEeczEht97IOEuB-4" value="DNS Provider&lt;br&gt;API" style="shape=parallelogram;html=1;strokeWidth=2;perimeter=parallelogramPerimeter;whiteSpace=wrap;rounded=1;arcSize=12;size=0.23;" vertex="1" parent="WIyWlLk6GJQsqaUBKTNV-1">
          <mxGeometry x="560" y="155" width="120" height="60" as="geometry" />
        </mxCell>
        <mxCell id="rxUTiSEeczEht97IOEuB-23" style="edgeStyle=orthogonalEdgeStyle;rounded=0;orthogonalLoop=1;jettySize=auto;html=1;endArrow=oval;endFill=1;curved=1;dashed=1;" edge="1" parent="WIyWlLk6GJQsqaUBKTNV-1" source="rxUTiSEeczEht97IOEuB-7">
          <mxGeometry relative="1" as="geometry">
            <mxPoint x="180" y="280" as="targetPoint" />
          </mxGeometry>
        </mxCell>
        <mxCell id="rxUTiSEeczEht97IOEuB-7" value="Monitored&lt;div&gt;Records&lt;/div&gt;" style="html=1;strokeWidth=2;shape=manualInput;whiteSpace=wrap;rounded=1;size=26;arcSize=11;" vertex="1" parent="WIyWlLk6GJQsqaUBKTNV-1">
          <mxGeometry x="350" y="260" width="100" height="120" as="geometry" />
        </mxCell>
        <mxCell id="rxUTiSEeczEht97IOEuB-8" value="api.ipify.org" style="shape=parallelogram;html=1;strokeWidth=2;perimeter=parallelogramPerimeter;whiteSpace=wrap;rounded=1;arcSize=12;size=0.23;" vertex="1" parent="WIyWlLk6GJQsqaUBKTNV-1">
          <mxGeometry x="560" y="400" width="120" height="60" as="geometry" />
        </mxCell>
        <mxCell id="rxUTiSEeczEht97IOEuB-14" style="edgeStyle=orthogonalEdgeStyle;rounded=0;orthogonalLoop=1;jettySize=auto;html=1;entryX=0.5;entryY=0;entryDx=0;entryDy=0;" edge="1" parent="WIyWlLk6GJQsqaUBKTNV-1" source="rxUTiSEeczEht97IOEuB-9" target="rxUTiSEeczEht97IOEuB-13">
          <mxGeometry relative="1" as="geometry" />
        </mxCell>
        <mxCell id="rxUTiSEeczEht97IOEuB-9" value="Start" style="strokeWidth=2;html=1;shape=mxgraph.flowchart.start_1;whiteSpace=wrap;" vertex="1" parent="WIyWlLk6GJQsqaUBKTNV-1">
          <mxGeometry x="130" y="70" width="100" height="60" as="geometry" />
        </mxCell>
        <mxCell id="rxUTiSEeczEht97IOEuB-19" style="edgeStyle=orthogonalEdgeStyle;rounded=0;orthogonalLoop=1;jettySize=auto;html=1;entryX=0;entryY=0.5;entryDx=0;entryDy=0;startArrow=classic;startFill=1;dashed=1;" edge="1" parent="WIyWlLk6GJQsqaUBKTNV-1" source="rxUTiSEeczEht97IOEuB-13" target="rxUTiSEeczEht97IOEuB-4">
          <mxGeometry relative="1" as="geometry" />
        </mxCell>
        <mxCell id="rxUTiSEeczEht97IOEuB-49" style="edgeStyle=orthogonalEdgeStyle;rounded=0;orthogonalLoop=1;jettySize=auto;html=1;entryX=0.5;entryY=0;entryDx=0;entryDy=0;" edge="1" parent="WIyWlLk6GJQsqaUBKTNV-1" source="rxUTiSEeczEht97IOEuB-13" target="rxUTiSEeczEht97IOEuB-20">
          <mxGeometry relative="1" as="geometry" />
        </mxCell>
        <mxCell id="rxUTiSEeczEht97IOEuB-13" value="Get DNS Records" style="rounded=1;whiteSpace=wrap;html=1;absoluteArcSize=1;arcSize=14;strokeWidth=2;" vertex="1" parent="WIyWlLk6GJQsqaUBKTNV-1">
          <mxGeometry x="120" y="160" width="120" height="50" as="geometry" />
        </mxCell>
        <mxCell id="rxUTiSEeczEht97IOEuB-24" style="edgeStyle=orthogonalEdgeStyle;rounded=0;orthogonalLoop=1;jettySize=auto;html=1;" edge="1" parent="WIyWlLk6GJQsqaUBKTNV-1" source="rxUTiSEeczEht97IOEuB-20" target="rxUTiSEeczEht97IOEuB-22">
          <mxGeometry relative="1" as="geometry" />
        </mxCell>
        <mxCell id="rxUTiSEeczEht97IOEuB-20" value="i = 1" style="rounded=1;whiteSpace=wrap;html=1;absoluteArcSize=1;arcSize=14;strokeWidth=2;" vertex="1" parent="WIyWlLk6GJQsqaUBKTNV-1">
          <mxGeometry x="120" y="240" width="120" height="20" as="geometry" />
        </mxCell>
        <mxCell id="rxUTiSEeczEht97IOEuB-22" value="Does Record i &lt;br&gt;match any?" style="strokeWidth=2;html=1;shape=mxgraph.flowchart.decision;whiteSpace=wrap;" vertex="1" parent="WIyWlLk6GJQsqaUBKTNV-1">
          <mxGeometry x="120" y="310" width="120" height="90" as="geometry" />
        </mxCell>
        <mxCell id="rxUTiSEeczEht97IOEuB-31" value="Yes" style="edgeStyle=orthogonalEdgeStyle;rounded=0;orthogonalLoop=1;jettySize=auto;html=1;entryX=0.5;entryY=1;entryDx=0;entryDy=0;" edge="1" parent="WIyWlLk6GJQsqaUBKTNV-1" source="rxUTiSEeczEht97IOEuB-27" target="rxUTiSEeczEht97IOEuB-29">
          <mxGeometry relative="1" as="geometry" />
        </mxCell>
        <mxCell id="rxUTiSEeczEht97IOEuB-27" value="More items in Records List?" style="strokeWidth=2;html=1;shape=mxgraph.flowchart.decision;whiteSpace=wrap;" vertex="1" parent="WIyWlLk6GJQsqaUBKTNV-1">
          <mxGeometry x="-60" y="310" width="120" height="90" as="geometry" />
        </mxCell>
        <mxCell id="rxUTiSEeczEht97IOEuB-32" style="edgeStyle=orthogonalEdgeStyle;rounded=0;orthogonalLoop=1;jettySize=auto;html=1;entryX=0;entryY=0.5;entryDx=0;entryDy=0;" edge="1" parent="WIyWlLk6GJQsqaUBKTNV-1" source="rxUTiSEeczEht97IOEuB-29" target="rxUTiSEeczEht97IOEuB-20">
          <mxGeometry relative="1" as="geometry" />
        </mxCell>
        <mxCell id="rxUTiSEeczEht97IOEuB-29" value="Add 1 to i" style="rounded=1;whiteSpace=wrap;html=1;absoluteArcSize=1;arcSize=14;strokeWidth=2;" vertex="1" parent="WIyWlLk6GJQsqaUBKTNV-1">
          <mxGeometry x="-60" y="240" width="120" height="20" as="geometry" />
        </mxCell>
        <mxCell id="rxUTiSEeczEht97IOEuB-30" value="No" style="edgeStyle=orthogonalEdgeStyle;rounded=0;orthogonalLoop=1;jettySize=auto;html=1;entryX=1;entryY=0.5;entryDx=0;entryDy=0;entryPerimeter=0;" edge="1" parent="WIyWlLk6GJQsqaUBKTNV-1" source="rxUTiSEeczEht97IOEuB-22" target="rxUTiSEeczEht97IOEuB-27">
          <mxGeometry x="-0.6667" y="-15" relative="1" as="geometry">
            <mxPoint as="offset" />
          </mxGeometry>
        </mxCell>
        <mxCell id="rxUTiSEeczEht97IOEuB-47" style="edgeStyle=orthogonalEdgeStyle;rounded=0;orthogonalLoop=1;jettySize=auto;html=1;endArrow=oval;endFill=1;dashed=1;" edge="1" parent="WIyWlLk6GJQsqaUBKTNV-1" source="rxUTiSEeczEht97IOEuB-33">
          <mxGeometry relative="1" as="geometry">
            <mxPoint x="180" y="440" as="targetPoint" />
            <Array as="points">
              <mxPoint x="270" y="470" />
              <mxPoint x="270" y="440" />
            </Array>
          </mxGeometry>
        </mxCell>
        <mxCell id="rxUTiSEeczEht97IOEuB-61" style="edgeStyle=orthogonalEdgeStyle;rounded=0;orthogonalLoop=1;jettySize=auto;html=1;endArrow=oval;endFill=1;jumpStyle=arc;dashed=1;" edge="1" parent="WIyWlLk6GJQsqaUBKTNV-1">
          <mxGeometry relative="1" as="geometry">
            <mxPoint x="180" y="720" as="targetPoint" />
            <mxPoint x="360" y="470" as="sourcePoint" />
            <Array as="points">
              <mxPoint x="360" y="471" />
              <mxPoint x="270" y="471" />
              <mxPoint x="270" y="720" />
            </Array>
          </mxGeometry>
        </mxCell>
        <mxCell id="rxUTiSEeczEht97IOEuB-33" value="Source of Truth" style="strokeWidth=2;html=1;shape=mxgraph.flowchart.document2;whiteSpace=wrap;size=0.25;" vertex="1" parent="WIyWlLk6GJQsqaUBKTNV-1">
          <mxGeometry x="350" y="440" width="100" height="60" as="geometry" />
        </mxCell>
        <mxCell id="rxUTiSEeczEht97IOEuB-34" style="edgeStyle=orthogonalEdgeStyle;rounded=0;orthogonalLoop=1;jettySize=auto;html=1;entryX=1;entryY=0.5;entryDx=0;entryDy=0;entryPerimeter=0;" edge="1" parent="WIyWlLk6GJQsqaUBKTNV-1" source="rxUTiSEeczEht97IOEuB-38" target="rxUTiSEeczEht97IOEuB-33">
          <mxGeometry relative="1" as="geometry" />
        </mxCell>
        <mxCell id="rxUTiSEeczEht97IOEuB-35" value="Admin-Set&lt;div&gt;IP&lt;/div&gt;" style="html=1;strokeWidth=2;shape=manualInput;whiteSpace=wrap;rounded=1;size=26;arcSize=11;" vertex="1" parent="WIyWlLk6GJQsqaUBKTNV-1">
          <mxGeometry x="560" y="480" width="100" height="80" as="geometry" />
        </mxCell>
        <mxCell id="rxUTiSEeczEht97IOEuB-36" style="edgeStyle=orthogonalEdgeStyle;rounded=0;orthogonalLoop=1;jettySize=auto;html=1;entryX=1;entryY=0.5;entryDx=0;entryDy=0;entryPerimeter=0;dashed=1;" edge="1" parent="WIyWlLk6GJQsqaUBKTNV-1" source="rxUTiSEeczEht97IOEuB-38" target="rxUTiSEeczEht97IOEuB-33">
          <mxGeometry relative="1" as="geometry" />
        </mxCell>
        <mxCell id="rxUTiSEeczEht97IOEuB-41" value="" style="edgeStyle=orthogonalEdgeStyle;rounded=0;orthogonalLoop=1;jettySize=auto;html=1;entryX=1;entryY=0.5;entryDx=0;entryDy=0;entryPerimeter=0;dashed=1;" edge="1" parent="WIyWlLk6GJQsqaUBKTNV-1" source="rxUTiSEeczEht97IOEuB-8" target="rxUTiSEeczEht97IOEuB-38">
          <mxGeometry relative="1" as="geometry">
            <mxPoint x="574" y="430" as="sourcePoint" />
            <mxPoint x="450" y="470" as="targetPoint" />
          </mxGeometry>
        </mxCell>
        <mxCell id="rxUTiSEeczEht97IOEuB-38" value="" style="verticalLabelPosition=bottom;verticalAlign=top;html=1;shape=mxgraph.flowchart.summing_function;" vertex="1" parent="WIyWlLk6GJQsqaUBKTNV-1">
          <mxGeometry x="470" y="455" width="30" height="30" as="geometry" />
        </mxCell>
        <mxCell id="rxUTiSEeczEht97IOEuB-42" style="edgeStyle=orthogonalEdgeStyle;rounded=0;orthogonalLoop=1;jettySize=auto;html=1;entryX=1;entryY=0.5;entryDx=0;entryDy=0;entryPerimeter=0;dashed=1;" edge="1" parent="WIyWlLk6GJQsqaUBKTNV-1" source="rxUTiSEeczEht97IOEuB-35" target="rxUTiSEeczEht97IOEuB-38">
          <mxGeometry relative="1" as="geometry" />
        </mxCell>
        <mxCell id="rxUTiSEeczEht97IOEuB-53" value="No" style="edgeStyle=orthogonalEdgeStyle;rounded=0;orthogonalLoop=1;jettySize=auto;html=1;" edge="1" parent="WIyWlLk6GJQsqaUBKTNV-1" source="rxUTiSEeczEht97IOEuB-43" target="rxUTiSEeczEht97IOEuB-52">
          <mxGeometry x="-0.8182" y="10" relative="1" as="geometry">
            <mxPoint as="offset" />
          </mxGeometry>
        </mxCell>
        <mxCell id="rxUTiSEeczEht97IOEuB-43" value="Record Data&lt;div&gt;Match SoT?&lt;/div&gt;" style="strokeWidth=2;html=1;shape=mxgraph.flowchart.decision;whiteSpace=wrap;" vertex="1" parent="WIyWlLk6GJQsqaUBKTNV-1">
          <mxGeometry x="120" y="455" width="120" height="90" as="geometry" />
        </mxCell>
        <mxCell id="rxUTiSEeczEht97IOEuB-44" value="Yes" style="edgeStyle=orthogonalEdgeStyle;rounded=0;orthogonalLoop=1;jettySize=auto;html=1;entryX=0.5;entryY=0;entryDx=0;entryDy=0;entryPerimeter=0;" edge="1" parent="WIyWlLk6GJQsqaUBKTNV-1" source="rxUTiSEeczEht97IOEuB-22" target="rxUTiSEeczEht97IOEuB-43">
          <mxGeometry x="-1" y="20" relative="1" as="geometry">
            <mxPoint as="offset" />
          </mxGeometry>
        </mxCell>
        <mxCell id="rxUTiSEeczEht97IOEuB-48" value="Yes" style="edgeStyle=orthogonalEdgeStyle;rounded=0;orthogonalLoop=1;jettySize=auto;html=1;entryX=1;entryY=0.5;entryDx=0;entryDy=0;entryPerimeter=0;" edge="1" parent="WIyWlLk6GJQsqaUBKTNV-1" source="rxUTiSEeczEht97IOEuB-43" target="rxUTiSEeczEht97IOEuB-27">
          <mxGeometry x="-0.9091" y="-20" relative="1" as="geometry">
            <mxPoint as="offset" />
          </mxGeometry>
        </mxCell>
        <mxCell id="rxUTiSEeczEht97IOEuB-50" value="End" style="strokeWidth=2;html=1;shape=mxgraph.flowchart.start_1;whiteSpace=wrap;" vertex="1" parent="WIyWlLk6GJQsqaUBKTNV-1">
          <mxGeometry x="-50" y="690" width="100" height="60" as="geometry" />
        </mxCell>
        <mxCell id="rxUTiSEeczEht97IOEuB-51" style="edgeStyle=orthogonalEdgeStyle;rounded=0;orthogonalLoop=1;jettySize=auto;html=1;entryX=0.5;entryY=0;entryDx=0;entryDy=0;entryPerimeter=0;" edge="1" parent="WIyWlLk6GJQsqaUBKTNV-1" source="rxUTiSEeczEht97IOEuB-27" target="rxUTiSEeczEht97IOEuB-50">
          <mxGeometry relative="1" as="geometry" />
        </mxCell>
        <mxCell id="rxUTiSEeczEht97IOEuB-57" value="Yes" style="edgeStyle=orthogonalEdgeStyle;rounded=0;orthogonalLoop=1;jettySize=auto;html=1;entryX=0.5;entryY=0;entryDx=0;entryDy=0;" edge="1" parent="WIyWlLk6GJQsqaUBKTNV-1" source="rxUTiSEeczEht97IOEuB-52" target="rxUTiSEeczEht97IOEuB-56">
          <mxGeometry x="-0.6" y="20" relative="1" as="geometry">
            <mxPoint as="offset" />
          </mxGeometry>
        </mxCell>
        <mxCell id="rxUTiSEeczEht97IOEuB-52" value="Record Data&lt;div&gt;Match Previous?&lt;/div&gt;" style="strokeWidth=2;html=1;shape=mxgraph.flowchart.decision;whiteSpace=wrap;" vertex="1" parent="WIyWlLk6GJQsqaUBKTNV-1">
          <mxGeometry x="120" y="600" width="120" height="90" as="geometry" />
        </mxCell>
        <mxCell id="rxUTiSEeczEht97IOEuB-55" style="edgeStyle=orthogonalEdgeStyle;rounded=0;orthogonalLoop=1;jettySize=auto;html=1;endArrow=oval;endFill=1;jumpStyle=arc;dashed=1;" edge="1" parent="WIyWlLk6GJQsqaUBKTNV-1" source="rxUTiSEeczEht97IOEuB-54">
          <mxGeometry relative="1" as="geometry">
            <mxPoint x="180" y="585" as="targetPoint" />
          </mxGeometry>
        </mxCell>
        <mxCell id="rxUTiSEeczEht97IOEuB-54" value="Previous Record&lt;div&gt;Value&lt;/div&gt;" style="strokeWidth=2;html=1;shape=mxgraph.flowchart.document2;whiteSpace=wrap;size=0.25;" vertex="1" parent="WIyWlLk6GJQsqaUBKTNV-1">
          <mxGeometry x="350" y="555" width="100" height="60" as="geometry" />
        </mxCell>
        <mxCell id="rxUTiSEeczEht97IOEuB-62" style="edgeStyle=orthogonalEdgeStyle;rounded=0;orthogonalLoop=1;jettySize=auto;html=1;entryX=0.5;entryY=1;entryDx=0;entryDy=0;exitX=1;exitY=0.5;exitDx=0;exitDy=0;dashed=1;" edge="1" parent="WIyWlLk6GJQsqaUBKTNV-1" source="rxUTiSEeczEht97IOEuB-56" target="rxUTiSEeczEht97IOEuB-4">
          <mxGeometry relative="1" as="geometry">
            <Array as="points">
              <mxPoint x="700" y="780" />
              <mxPoint x="700" y="260" />
              <mxPoint x="620" y="260" />
            </Array>
          </mxGeometry>
        </mxCell>
        <mxCell id="rxUTiSEeczEht97IOEuB-63" style="edgeStyle=orthogonalEdgeStyle;rounded=0;orthogonalLoop=1;jettySize=auto;html=1;dashed=1;" edge="1" parent="WIyWlLk6GJQsqaUBKTNV-1" source="rxUTiSEeczEht97IOEuB-56" target="rxUTiSEeczEht97IOEuB-54">
          <mxGeometry relative="1" as="geometry" />
        </mxCell>
        <mxCell id="rxUTiSEeczEht97IOEuB-56" value="Update Record&lt;div&gt;with DNS Provider&lt;/div&gt;&lt;div&gt;&lt;br&gt;&lt;/div&gt;&lt;div&gt;Update Previous Record Value&lt;/div&gt;" style="rounded=1;whiteSpace=wrap;html=1;absoluteArcSize=1;arcSize=14;strokeWidth=2;" vertex="1" parent="WIyWlLk6GJQsqaUBKTNV-1">
          <mxGeometry x="120" y="740" width="120" height="80" as="geometry" />
        </mxCell>
        <mxCell id="rxUTiSEeczEht97IOEuB-64" style="edgeStyle=orthogonalEdgeStyle;rounded=0;orthogonalLoop=1;jettySize=auto;html=1;entryX=1;entryY=0.5;entryDx=0;entryDy=0;entryPerimeter=0;" edge="1" parent="WIyWlLk6GJQsqaUBKTNV-1" source="rxUTiSEeczEht97IOEuB-56" target="rxUTiSEeczEht97IOEuB-27">
          <mxGeometry relative="1" as="geometry" />
        </mxCell>
        <mxCell id="rxUTiSEeczEht97IOEuB-68" style="edgeStyle=orthogonalEdgeStyle;rounded=0;orthogonalLoop=1;jettySize=auto;html=1;endArrow=oval;endFill=1;dashed=1;" edge="1" parent="WIyWlLk6GJQsqaUBKTNV-1" source="rxUTiSEeczEht97IOEuB-65">
          <mxGeometry relative="1" as="geometry">
            <mxPoint x="700" y="645" as="targetPoint" />
          </mxGeometry>
        </mxCell>
        <mxCell id="rxUTiSEeczEht97IOEuB-69" style="edgeStyle=orthogonalEdgeStyle;rounded=0;orthogonalLoop=1;jettySize=auto;html=1;endArrow=none;endFill=0;jumpStyle=arc;" edge="1" parent="WIyWlLk6GJQsqaUBKTNV-1" source="rxUTiSEeczEht97IOEuB-65">
          <mxGeometry relative="1" as="geometry">
            <mxPoint x="90" y="730" as="targetPoint" />
            <Array as="points">
              <mxPoint x="530" y="850" />
              <mxPoint x="90" y="850" />
            </Array>
          </mxGeometry>
        </mxCell>
        <mxCell id="rxUTiSEeczEht97IOEuB-65" value="Notify Admin of Record Change&lt;div&gt;&lt;br&gt;&lt;/div&gt;&lt;div&gt;Update Record with DNS Provider&lt;/div&gt;" style="rounded=1;whiteSpace=wrap;html=1;absoluteArcSize=1;arcSize=14;strokeWidth=2;" vertex="1" parent="WIyWlLk6GJQsqaUBKTNV-1">
          <mxGeometry x="470" y="605" width="120" height="80" as="geometry" />
        </mxCell>
        <mxCell id="rxUTiSEeczEht97IOEuB-66" value="No" style="edgeStyle=orthogonalEdgeStyle;rounded=0;orthogonalLoop=1;jettySize=auto;html=1;entryX=0;entryY=0.5;entryDx=0;entryDy=0;shadow=1;jumpStyle=arc;" edge="1" parent="WIyWlLk6GJQsqaUBKTNV-1" source="rxUTiSEeczEht97IOEuB-52" target="rxUTiSEeczEht97IOEuB-65">
          <mxGeometry x="-0.913" y="15" relative="1" as="geometry">
            <mxPoint as="offset" />
          </mxGeometry>
        </mxCell>
        <mxCell id="rxUTiSEeczEht97IOEuB-71" value="Run Every&amp;nbsp;&lt;div&gt;N Minutes&lt;/div&gt;" style="strokeWidth=2;html=1;shape=mxgraph.flowchart.annotation_2;align=left;labelPosition=right;pointerEvents=1;" vertex="1" parent="WIyWlLk6GJQsqaUBKTNV-1">
          <mxGeometry x="230" y="75" width="50" height="50" as="geometry" />
        </mxCell>
      </root>
    </mxGraphModel>
  </diagram>
</mxfile>
